<?xml version="1.0" encoding="UTF-8" standalone="no"?>
<!DOCTYPE svg PUBLIC "-//W3C//DTD SVG 1.1//EN"
 "http://www.w3.org/Graphics/SVG/1.1/DTD/svg11.dtd">
<!-- Generated by graphviz version 2.43.0 (0)
 -->
<!-- Title: G Pages: 1 -->
<svg width="244pt" height="500pt"
 viewBox="0.00 0.00 243.82 499.98" xmlns="http://www.w3.org/2000/svg" xmlns:xlink="http://www.w3.org/1999/xlink">
<g id="graph0" class="graph" transform="scale(1 1) rotate(0) translate(4 495.98)">
<title>G</title><style>.edge>path:hover{stroke-width:8}</style>
<polygon fill="white" stroke="transparent" points="-4,4 -4,-495.98 239.82,-495.98 239.82,4 -4,4"/>
<!-- vcorelib -->
<g id="node1" class="node">
<title>vcorelib</title><style>.edge>path:hover{stroke-width:8}</style>
<ellipse fill="#c24747" stroke="black" cx="86.72" cy="-473.98" rx="32.93" ry="18"/>
<text text-anchor="middle" x="86.72" y="-471.48" font-family="Helvetica,sans-Serif" font-size="10.00" fill="#ffffff">vcorelib</text>
</g>
<!-- yambs_app -->
<g id="node4" class="node">
<title>yambs_app</title><style>.edge>path:hover{stroke-width:8}</style>
<ellipse fill="#35a1a1" stroke="black" cx="97.72" cy="-162" rx="41.59" ry="18"/>
<text text-anchor="middle" x="97.72" y="-159.5" font-family="Helvetica,sans-Serif" font-size="10.00" fill="#000000">yambs.app</text>
</g>
<!-- vcorelib&#45;&gt;yambs_app -->
<g id="edge1" class="edge">
<title>vcorelib&#45;&gt;yambs_app</title><style>.edge>path:hover{stroke-width:8}</style>
<path fill="none" stroke="black" d="M89.41,-456.02C91.71,-437.65 93.66,-407.65 86.72,-382.98"/>
<path fill="none" stroke="black" d="M86.72,-381.98C76.19,-352.32 43.59,-371.9 25.72,-345.98 -2.68,-304.78 -4.5,-283.77 6.72,-235"/>
<path fill="none" stroke="black" d="M6.72,-233C12.12,-207.58 35.63,-189.9 57.39,-178.66"/>
<polygon fill="#c24747" stroke="black" points="59.07,-181.74 66.55,-174.24 56.03,-175.43 59.07,-181.74"/>
</g>
<!-- yambs_commands_all -->
<g id="node6" class="node">
<title>yambs_commands_all</title><style>.edge>path:hover{stroke-width:8}</style>
<ellipse fill="#3db8b8" stroke="black" cx="86.72" cy="-316.99" rx="52.15" ry="28.98"/>
<text text-anchor="middle" x="86.72" y="-325.49" font-family="Helvetica,sans-Serif" font-size="10.00" fill="#000000">yambs.</text>
<text text-anchor="middle" x="86.72" y="-314.49" font-family="Helvetica,sans-Serif" font-size="10.00" fill="#000000">commands.</text>
<text text-anchor="middle" x="86.72" y="-303.49" font-family="Helvetica,sans-Serif" font-size="10.00" fill="#000000">all</text>
</g>
<!-- vcorelib&#45;&gt;yambs_commands_all -->
<g id="edge2" class="edge">
<title>vcorelib&#45;&gt;yambs_commands_all</title><style>.edge>path:hover{stroke-width:8}</style>
<path fill="none" stroke="black" d="M86.72,-381.98C84.44,-373.85 83.51,-364.9 83.33,-356.33"/>
<polygon fill="#c24747" stroke="black" points="86.83,-356.2 83.45,-346.16 79.84,-356.12 86.83,-356.2"/>
</g>
<!-- vcorelib_args -->
<g id="node2" class="node">
<title>vcorelib_args</title><style>.edge>path:hover{stroke-width:8}</style>
<ellipse fill="#c24747" stroke="black" cx="188.72" cy="-473.98" rx="47.19" ry="18"/>
<text text-anchor="middle" x="188.72" y="-471.48" font-family="Helvetica,sans-Serif" font-size="10.00" fill="#ffffff">vcorelib.args</text>
</g>
<!-- vcorelib_args&#45;&gt;yambs_app -->
<g id="edge3" class="edge">
<title>vcorelib_args&#45;&gt;yambs_app</title><style>.edge>path:hover{stroke-width:8}</style>
<path fill="none" stroke="black" d="M188.72,-381.98C159.95,-313.53 206.95,-280.25 169.72,-216 161.3,-201.46 147.12,-189.74 133.56,-181.05"/>
<polygon fill="#c24747" stroke="black" points="135.18,-177.94 124.81,-175.78 131.57,-183.94 135.18,-177.94"/>
</g>
<!-- vcorelib_args&#45;&gt;yambs_commands_all -->
<g id="edge4" class="edge">
<title>vcorelib_args&#45;&gt;yambs_commands_all</title><style>.edge>path:hover{stroke-width:8}</style>
<path fill="none" stroke="black" d="M191.95,-455.86C194.71,-437.34 197.05,-407.22 188.72,-382.98"/>
<path fill="none" stroke="black" d="M188.72,-381.98C179.98,-361.19 160.49,-346.55 140.86,-336.58"/>
<polygon fill="#c24747" stroke="black" points="142.1,-333.3 131.56,-332.19 139.11,-339.63 142.1,-333.3"/>
</g>
<!-- yambs___main__ -->
<g id="node3" class="node">
<title>yambs___main__</title><style>.edge>path:hover{stroke-width:8}</style>
<ellipse fill="#49acac" stroke="black" cx="97.72" cy="-18" rx="57.88" ry="18"/>
<text text-anchor="middle" x="97.72" y="-15.5" font-family="Helvetica,sans-Serif" font-size="10.00" fill="#000000">yambs.__main__</text>
</g>
<!-- yambs_entry -->
<g id="node7" class="node">
<title>yambs_entry</title><style>.edge>path:hover{stroke-width:8}</style>
<ellipse fill="#3db8b8" stroke="black" cx="97.72" cy="-90" rx="45.83" ry="18"/>
<text text-anchor="middle" x="97.72" y="-87.5" font-family="Helvetica,sans-Serif" font-size="10.00" fill="#000000">yambs.entry</text>
</g>
<!-- yambs_app&#45;&gt;yambs_entry -->
<g id="edge5" class="edge">
<title>yambs_app&#45;&gt;yambs_entry</title><style>.edge>path:hover{stroke-width:8}</style>
<path fill="none" stroke="black" d="M97.72,-143.7C97.72,-135.98 97.72,-126.71 97.72,-118.11"/>
<polygon fill="#35a1a1" stroke="black" points="101.22,-118.1 97.72,-108.1 94.22,-118.1 101.22,-118.1"/>
</g>
<!-- yambs_commands -->
<g id="node5" class="node">
<title>yambs_commands</title><style>.edge>path:hover{stroke-width:8}</style>
<ellipse fill="#47c2c2" stroke="black" cx="97.72" cy="-234" rx="62.97" ry="18"/>
<text text-anchor="middle" x="97.72" y="-231.5" font-family="Helvetica,sans-Serif" font-size="10.00" fill="#000000">yambs.commands</text>
</g>
<!-- yambs_commands&#45;&gt;yambs_app -->
<g id="edge6" class="edge">
<title>yambs_commands&#45;&gt;yambs_app</title><style>.edge>path:hover{stroke-width:8}</style>
<path fill="none" stroke="black" d="M97.72,-215.7C97.72,-207.98 97.72,-198.71 97.72,-190.11"/>
<polygon fill="#47c2c2" stroke="black" points="101.22,-190.1 97.72,-180.1 94.22,-190.1 101.22,-190.1"/>
</g>
<!-- yambs_commands_all&#45;&gt;yambs_app -->
<g id="edge7" class="edge">
<title>yambs_commands_all&#45;&gt;yambs_app</title><style>.edge>path:hover{stroke-width:8}</style>
<path fill="none" stroke="black" d="M48.01,-297.48C24.68,-283.35 0.56,-261.77 6.72,-235"/>
</g>
<!-- yambs_entry&#45;&gt;yambs___main__ -->
<g id="edge8" class="edge">
<title>yambs_entry&#45;&gt;yambs___main__</title><style>.edge>path:hover{stroke-width:8}</style>
<path fill="none" stroke="black" d="M97.72,-71.7C97.72,-63.98 97.72,-54.71 97.72,-46.11"/>
<polygon fill="#3db8b8" stroke="black" points="101.22,-46.1 97.72,-36.1 94.22,-46.1 101.22,-46.1"/>
</g>
</g>
</svg>
